{"title":"Bangkok Wives","uid":6982407,"size":949271633,"categoryP":"porn","categoryS":"movies","magnet":"?xt=urn:btih:fabaef7ec54a2bd2c20a9354a4b3443970765590&amp;dn=Bangkok+Wives&amp;tr=udp%3A%2F%2Ftracker.openbittorrent.com%3A80&amp;tr=udp%3A%2F%2Fopen.demonii.com%3A1337&amp;tr=udp%3A%2F%2Ftracker.coppersurfer.tk%3A6969&amp;tr=udp%3A%2F%2Fexodus.desync.com%3A6969","seeders":0,"leechers":2,"uploader":"tigris1968","files":87,"time":1327444323,"description":"Bangkok Wives DVD\nPenthouse\nCategory \tAll Sex, Interracial, Asian\nDirector \tSkye Blue\nStarring \tAsa Akira, Raylene, Jessica Bangkok, Kina Kai, \nBeti Hana, Evan Stone, Randy Spears, Nick Manning, Charles Dera.\n\nStudio \tPenthouse\nDiscs \t1\n\nfrond\n &lt;a href=&quot;\nhttp://bayimg.com/GAmgCaAdC&quot; rel=&quot;nofollow&quot; target=&quot;_NEW&quot;&gt;\nhttp://bayimg.com/GAmgCaAdC&lt;/a&gt;\n\nback \n &lt;a href=&quot;\nhttp://bayimg.com/gAmGDaaDc&quot; rel=&quot;nofollow&quot; target=&quot;_NEW&quot;&gt;\nhttp://bayimg.com/gAmGDaaDc&lt;/a&gt;\n\nscreen\n &lt;a href=&quot;\nhttp://bayimg.com/gamgHaADC&quot; rel=&quot;nofollow&quot; target=&quot;_NEW&quot;&gt;\nhttp://bayimg.com/gamgHaADC&lt;/a&gt;\n\nGeneral\nComplete name                    : C:\\Downloads\\Bangkok Wives\\dvd\\Bangkok Wives.avi\nFormat                           : AVI\nFormat/Info                      : Audio Video Interleave\nFile size                        : 895 MiB\nDuration                         : 1h 34mn\nOverall bit rate                 : 1 330 Kbps\nWriting application              : MEncoder SVN-r30881(20100311-gcc4.3.3)\nWriting library                  : MPlayer\n\nVideo\nID                               : 0\nFormat                           : MPEG-4 Visual\nFormat profile                   : Advanced Simple@L5\nFormat settings, BVOP            : 2\nFormat settings, QPel            : No\nFormat settings, GMC             : No warppoints\nFormat settings, Matrix          : Default (H.263)\nCodec ID                         : XVID\nCodec ID/Hint                    : XviD\nDuration                         : 1h 34mn\nBit rate                         : 1 189 Kbps\nWidth                            : 720 pixels\nHeight                           : 480 pixels\nDisplay aspect ratio             : 3:2\nFrame rate                       : 25.000 fps\nStandard                         : NTSC\nColor space                      : YUV\nChroma subsampling               : 4:2:0\nBit depth                        : 8 bits\nScan type                        : Progressive\nCompression mode                 : Lossy\nBits/(Pixel*Frame)               : 0.138\nStream size                      : 800 MiB (89%)\nWriting library                  : XviD 1.2.1 (UTC 2008-12-04)\n\nAudio\nID                               : 1\nFormat                           : MPEG Audio\nFormat version                   : Version 1\nFormat profile                   : Layer 3\nMode                             : Joint stereo\nMode extension                   : MS Stereo\nCodec ID                         : 55\nCodec ID/Hint                    : MP3\nDuration                         : 1h 34mn\nBit rate mode                    : Constant\nBit rate                         : 128 Kbps\nChannel(s)                       : 2 channels\nSampling rate                    : 44.1 KHz\nCompression mode                 : Lossy\nDelay relative to video          : 40ms\nStream size                      : 86.1 MiB (10%)\nAlignment                        : Aligned on interleaves\nInterleave, duration             : 26 ms (0.65 video frame)\nInterleave, preload duration     : 522 ms\nWriting library                  : LAME3.98","torrent":{"xt":"urn:btih:fabaef7ec54a2bd2c20a9354a4b3443970765590","amp;dn":"Bangkok+Wives","amp;tr":["udp%3A%2F%2Ftracker.openbittorrent.com%3A80","udp%3A%2F%2Fopen.demonii.com%3A1337","udp%3A%2F%2Ftracker.coppersurfer.tk%3A6969","udp%3A%2F%2Fexodus.desync.com%3A6969"],"infoHash":"fabaef7ec54a2bd2c20a9354a4b3443970765590","infoHashBuffer":{"type":"Buffer","data":[250,186,239,126,197,74,43,210,194,10,147,84,164,179,68,57,112,118,85,144]},"announce":[],"urlList":[]}}